<svg xmlns="http://www.w3.org/2000/svg" viewBox="0 0 184.6 162.89"><title>Asset 2</title><g opacity="0.42"><polygon points="88.55 137.39 45.47 162.52 2.4 137.39 45.47 112.52 88.55 137.39" fill="#9e9e9e"/><polygon points="2.4 137.39 2.4 87.39 45.47 112.52 45.47 162.52 2.4 137.39" fill="#bdbdbd"/><polygon points="45.47 112.52 89 87.39 88.55 137.39 45.47 162.52 45.47 112.52" fill="#e0e0e0"/></g><polyline points="7.17 139.05 1.99 136.02 1.99 130.02" fill="none" stroke="#01ffed" stroke-miterlimit="10" stroke-width="2"/><line x1="1.99" y1="117.36" x2="1.99" y2="98.36" fill="none" stroke="#01ffed" stroke-miterlimit="10" stroke-width="2" stroke-dasharray="12.67 12.67"/><polyline points="1.99 92.02 1.99 86.02 7.17 89.05" fill="none" stroke="#01ffed" stroke-miterlimit="10" stroke-width="2"/><line x1="18.08" y1="95.41" x2="34.43" y2="104.95" fill="none" stroke="#01ffed" stroke-miterlimit="10" stroke-width="2" stroke-dasharray="12.62 12.62"/><polyline points="39.88 108.13 45.07 111.15 45.07 117.15" fill="none" stroke="#01ffed" stroke-miterlimit="10" stroke-width="2"/><line x1="45.07" y1="129.82" x2="45.07" y2="148.82" fill="none" stroke="#01ffed" stroke-miterlimit="10" stroke-width="2" stroke-dasharray="12.67 12.67"/><polyline points="45.07 155.15 45.07 161.15 39.88 158.13" fill="none" stroke="#01ffed" stroke-miterlimit="10" stroke-width="2"/><line x1="28.98" y1="151.77" x2="12.63" y2="142.23" fill="none" stroke="#01ffed" stroke-miterlimit="10" stroke-width="2" stroke-dasharray="12.62 12.62"/><polyline points="45.07 117.15 45.07 111.15 50.26 108.15" fill="none" stroke="#01ffed" stroke-miterlimit="10" stroke-width="2"/><line x1="61.31" y1="101.78" x2="77.88" y2="92.21" fill="none" stroke="#01ffed" stroke-miterlimit="10" stroke-width="2" stroke-dasharray="12.75 12.75"/><polyline points="83.4 89.02 88.59 86.02 88.54 92.02" fill="none" stroke="#01ffed" stroke-miterlimit="10" stroke-width="2"/><line x1="88.43" y1="104.69" x2="88.25" y2="123.69" fill="none" stroke="#01ffed" stroke-miterlimit="10" stroke-width="2" stroke-dasharray="12.67 12.67"/><polyline points="88.2 130.02 88.14 136.02 82.96 139.05" fill="none" stroke="#01ffed" stroke-miterlimit="10" stroke-width="2"/><line x1="72.06" y1="145.41" x2="55.7" y2="154.95" fill="none" stroke="#01ffed" stroke-miterlimit="10" stroke-width="2" stroke-dasharray="12.62 12.62"/><polyline points="50.25 158.13 45.07 161.15 45.07 155.15" fill="none" stroke="#01ffed" stroke-miterlimit="10" stroke-width="2"/><line x1="45.07" y1="142.49" x2="45.07" y2="123.49" fill="none" stroke="#01ffed" stroke-miterlimit="10" stroke-width="2" stroke-dasharray="12.67 12.67"/><g opacity="0.42"><polygon points="88.55 77.39 45.47 102.52 2.4 77.39 45.47 52.52 88.55 77.39" fill="#9e9e9e"/><polygon points="2.4 77.39 2.4 27.39 45.47 52.52 45.47 102.52 2.4 77.39" fill="#bdbdbd"/><polygon points="45.47 52.52 89 27.39 88.55 77.39 45.47 102.52 45.47 52.52" fill="#e0e0e0"/><polygon points="45.47 52.52 89 27.39 45.47 2.52 2.4 27.39 45.47 52.52" fill="#f5f5f5"/></g><polyline points="7.17 79.05 1.99 76.02 1.99 70.02" fill="none" stroke="#01ffed" stroke-miterlimit="10" stroke-width="2"/><line x1="1.99" y1="57.36" x2="1.99" y2="38.36" fill="none" stroke="#01ffed" stroke-miterlimit="10" stroke-width="2" stroke-dasharray="12.67 12.67"/><polyline points="1.99 32.02 1.99 26.02 7.17 29.05" fill="none" stroke="#01ffed" stroke-miterlimit="10" stroke-width="2"/><line x1="18.08" y1="35.41" x2="34.43" y2="44.95" fill="none" stroke="#01ffed" stroke-miterlimit="10" stroke-width="2" stroke-dasharray="12.62 12.62"/><polyline points="39.88 48.13 45.07 51.15 45.07 57.15" fill="none" stroke="#01ffed" stroke-miterlimit="10" stroke-width="2"/><line x1="45.07" y1="69.82" x2="45.07" y2="88.82" fill="none" stroke="#01ffed" stroke-miterlimit="10" stroke-width="2" stroke-dasharray="12.67 12.67"/><polyline points="45.07 95.15 45.07 101.15 39.88 98.13" fill="none" stroke="#01ffed" stroke-miterlimit="10" stroke-width="2"/><line x1="28.98" y1="91.77" x2="12.63" y2="82.23" fill="none" stroke="#01ffed" stroke-miterlimit="10" stroke-width="2" stroke-dasharray="12.62 12.62"/><polyline points="45.07 57.15 45.07 51.15 50.26 48.15" fill="none" stroke="#01ffed" stroke-miterlimit="10" stroke-width="2"/><line x1="61.31" y1="41.78" x2="77.88" y2="32.21" fill="none" stroke="#01ffed" stroke-miterlimit="10" stroke-width="2" stroke-dasharray="12.75 12.75"/><polyline points="83.4 29.02 88.59 26.02 88.54 32.02" fill="none" stroke="#01ffed" stroke-miterlimit="10" stroke-width="2"/><line x1="88.43" y1="44.69" x2="88.25" y2="63.69" fill="none" stroke="#01ffed" stroke-miterlimit="10" stroke-width="2" stroke-dasharray="12.67 12.67"/><polyline points="88.2 70.02 88.14 76.02 82.96 79.05" fill="none" stroke="#01ffed" stroke-miterlimit="10" stroke-width="2"/><line x1="72.06" y1="85.41" x2="55.7" y2="94.95" fill="none" stroke="#01ffed" stroke-miterlimit="10" stroke-width="2" stroke-dasharray="12.62 12.62"/><polyline points="50.25 98.13 45.07 101.15 45.07 95.15" fill="none" stroke="#01ffed" stroke-miterlimit="10" stroke-width="2"/><line x1="45.07" y1="82.49" x2="45.07" y2="63.49" fill="none" stroke="#01ffed" stroke-miterlimit="10" stroke-width="2" stroke-dasharray="12.67 12.67"/><line x1="22.36" y1="14.26" x2="17.16" y2="17.26" fill="none" stroke="#01ffed" stroke-miterlimit="10" stroke-width="2"/><polyline points="7.19 23.02 1.99 26.02 7.17 29.05" fill="none" stroke="#01ffed" stroke-miterlimit="10" stroke-width="2"/><line x1="18.08" y1="35.41" x2="34.43" y2="44.95" fill="none" stroke="#01ffed" stroke-miterlimit="10" stroke-width="2" stroke-dasharray="12.62 12.62"/><polyline points="39.88 48.13 45.07 51.15 50.26 48.15" fill="none" stroke="#01ffed" stroke-miterlimit="10" stroke-width="2"/><line x1="61.31" y1="41.78" x2="77.88" y2="32.21" fill="none" stroke="#01ffed" stroke-miterlimit="10" stroke-width="2" stroke-dasharray="12.75 12.75"/><polyline points="83.4 29.02 88.59 26.02 83.39 23.05" fill="none" stroke="#01ffed" stroke-miterlimit="10" stroke-width="2"/><line x1="72.35" y1="16.74" x2="55.79" y2="7.28" fill="none" stroke="#01ffed" stroke-miterlimit="10" stroke-width="2" stroke-dasharray="12.71 12.71"/><polyline points="50.28 4.13 45.07 1.15 39.87 4.15" fill="none" stroke="#01ffed" stroke-miterlimit="10" stroke-width="2"/><line x1="27.56" y1="11.26" x2="22.36" y2="14.26" fill="none" stroke="#01ffed" stroke-miterlimit="10" stroke-width="2"/><g opacity="0.42"><polygon points="182.54 137.39 139.47 162.52 96.39 137.39 139.47 112.52 182.54 137.39" fill="#9e9e9e"/><polygon points="96.39 137.39 96.39 87.39 139.47 112.52 139.47 162.52 96.39 137.39" fill="#bdbdbd"/><polygon points="139.47 112.52 183 87.39 182.54 137.39 139.47 162.52 139.47 112.52" fill="#e0e0e0"/></g><polyline points="101.17 139.05 95.99 136.02 95.99 130.02" fill="none" stroke="#01ffed" stroke-miterlimit="10" stroke-width="2"/><line x1="95.99" y1="117.36" x2="95.99" y2="98.36" fill="none" stroke="#01ffed" stroke-miterlimit="10" stroke-width="2" stroke-dasharray="12.67 12.67"/><polyline points="95.99 92.02 95.99 86.02 101.17 89.05" fill="none" stroke="#01ffed" stroke-miterlimit="10" stroke-width="2"/><line x1="112.08" y1="95.41" x2="128.43" y2="104.95" fill="none" stroke="#01ffed" stroke-miterlimit="10" stroke-width="2" stroke-dasharray="12.62 12.62"/><polyline points="133.88 108.13 139.07 111.15 139.07 117.15" fill="none" stroke="#01ffed" stroke-miterlimit="10" stroke-width="2"/><line x1="139.07" y1="129.82" x2="139.07" y2="148.82" fill="none" stroke="#01ffed" stroke-miterlimit="10" stroke-width="2" stroke-dasharray="12.67 12.67"/><polyline points="139.07 155.15 139.07 161.15 133.88 158.13" fill="none" stroke="#01ffed" stroke-miterlimit="10" stroke-width="2"/><line x1="122.98" y1="151.77" x2="106.63" y2="142.23" fill="none" stroke="#01ffed" stroke-miterlimit="10" stroke-width="2" stroke-dasharray="12.62 12.62"/><polyline points="139.07 117.15 139.07 111.15 144.26 108.15" fill="none" stroke="#01ffed" stroke-miterlimit="10" stroke-width="2"/><line x1="155.31" y1="101.78" x2="171.88" y2="92.21" fill="none" stroke="#01ffed" stroke-miterlimit="10" stroke-width="2" stroke-dasharray="12.75 12.75"/><polyline points="177.4 89.02 182.59 86.02 182.54 92.02" fill="none" stroke="#01ffed" stroke-miterlimit="10" stroke-width="2"/><line x1="182.43" y1="104.69" x2="182.25" y2="123.69" fill="none" stroke="#01ffed" stroke-miterlimit="10" stroke-width="2" stroke-dasharray="12.67 12.67"/><polyline points="182.2 130.02 182.14 136.02 176.96 139.05" fill="none" stroke="#01ffed" stroke-miterlimit="10" stroke-width="2"/><line x1="166.06" y1="145.41" x2="149.7" y2="154.95" fill="none" stroke="#01ffed" stroke-miterlimit="10" stroke-width="2" stroke-dasharray="12.62 12.62"/><polyline points="144.25 158.13 139.07 161.15 139.07 155.15" fill="none" stroke="#01ffed" stroke-miterlimit="10" stroke-width="2"/><line x1="139.07" y1="142.49" x2="139.07" y2="123.49" fill="none" stroke="#01ffed" stroke-miterlimit="10" stroke-width="2" stroke-dasharray="12.67 12.67"/><g opacity="0.42"><polygon points="182.54 77.39 139.47 102.52 96.39 77.39 139.47 52.52 182.54 77.39" fill="#9e9e9e"/><polygon points="96.39 77.39 96.39 27.39 139.47 52.52 139.47 102.52 96.39 77.39" fill="#bdbdbd"/><polygon points="139.47 52.52 183 27.39 182.54 77.39 139.47 102.52 139.47 52.52" fill="#e0e0e0"/><polygon points="139.47 52.52 183 27.39 139.47 2.52 96.39 27.39 139.47 52.52" fill="#f5f5f5"/></g><polyline points="101.17 79.05 95.99 76.02 95.99 70.02" fill="none" stroke="#01ffed" stroke-miterlimit="10" stroke-width="2"/><line x1="95.99" y1="57.36" x2="95.99" y2="38.36" fill="none" stroke="#01ffed" stroke-miterlimit="10" stroke-width="2" stroke-dasharray="12.67 12.67"/><polyline points="95.99 32.02 95.99 26.02 101.17 29.05" fill="none" stroke="#01ffed" stroke-miterlimit="10" stroke-width="2"/><line x1="112.08" y1="35.41" x2="128.43" y2="44.95" fill="none" stroke="#01ffed" stroke-miterlimit="10" stroke-width="2" stroke-dasharray="12.62 12.62"/><polyline points="133.88 48.13 139.07 51.15 139.07 57.15" fill="none" stroke="#01ffed" stroke-miterlimit="10" stroke-width="2"/><line x1="139.07" y1="69.82" x2="139.07" y2="88.82" fill="none" stroke="#01ffed" stroke-miterlimit="10" stroke-width="2" stroke-dasharray="12.67 12.67"/><polyline points="139.07 95.15 139.07 101.15 133.88 98.13" fill="none" stroke="#01ffed" stroke-miterlimit="10" stroke-width="2"/><line x1="122.98" y1="91.77" x2="106.63" y2="82.23" fill="none" stroke="#01ffed" stroke-miterlimit="10" stroke-width="2" stroke-dasharray="12.62 12.62"/><polyline points="139.07 57.15 139.07 51.15 144.26 48.15" fill="none" stroke="#01ffed" stroke-miterlimit="10" stroke-width="2"/><line x1="155.31" y1="41.78" x2="171.88" y2="32.21" fill="none" stroke="#01ffed" stroke-miterlimit="10" stroke-width="2" stroke-dasharray="12.75 12.75"/><polyline points="177.4 29.02 182.59 26.02 182.54 32.02" fill="none" stroke="#01ffed" stroke-miterlimit="10" stroke-width="2"/><line x1="182.43" y1="44.69" x2="182.25" y2="63.69" fill="none" stroke="#01ffed" stroke-miterlimit="10" stroke-width="2" stroke-dasharray="12.67 12.67"/><polyline points="182.2 70.02 182.14 76.02 176.96 79.05" fill="none" stroke="#01ffed" stroke-miterlimit="10" stroke-width="2"/><line x1="166.06" y1="85.41" x2="149.7" y2="94.95" fill="none" stroke="#01ffed" stroke-miterlimit="10" stroke-width="2" stroke-dasharray="12.62 12.62"/><polyline points="144.25 98.13 139.07 101.15 139.07 95.15" fill="none" stroke="#01ffed" stroke-miterlimit="10" stroke-width="2"/><line x1="139.07" y1="82.49" x2="139.07" y2="63.49" fill="none" stroke="#01ffed" stroke-miterlimit="10" stroke-width="2" stroke-dasharray="12.67 12.67"/><line x1="116.36" y1="14.26" x2="111.16" y2="17.26" fill="none" stroke="#01ffed" stroke-miterlimit="10" stroke-width="2"/><polyline points="101.19 23.02 95.99 26.02 101.17 29.05" fill="none" stroke="#01ffed" stroke-miterlimit="10" stroke-width="2"/><line x1="112.08" y1="35.41" x2="128.43" y2="44.95" fill="none" stroke="#01ffed" stroke-miterlimit="10" stroke-width="2" stroke-dasharray="12.62 12.62"/><polyline points="133.88 48.13 139.07 51.15 144.26 48.15" fill="none" stroke="#01ffed" stroke-miterlimit="10" stroke-width="2"/><line x1="155.31" y1="41.78" x2="171.88" y2="32.21" fill="none" stroke="#01ffed" stroke-miterlimit="10" stroke-width="2" stroke-dasharray="12.75 12.75"/><polyline points="177.4 29.02 182.59 26.02 177.38 23.05" fill="none" stroke="#01ffed" stroke-miterlimit="10" stroke-width="2"/><line x1="166.35" y1="16.74" x2="149.79" y2="7.28" fill="none" stroke="#01ffed" stroke-miterlimit="10" stroke-width="2" stroke-dasharray="12.71 12.71"/><polyline points="144.28 4.13 139.07 1.15 133.87 4.15" fill="none" stroke="#01ffed" stroke-miterlimit="10" stroke-width="2"/><line x1="121.56" y1="11.26" x2="116.36" y2="14.26" fill="none" stroke="#01ffed" stroke-miterlimit="10" stroke-width="2"/></svg>