<?xml version="1.0" encoding="UTF-8"?>
<svg width="59px" height="68px" viewBox="0 0 59 68" version="1.1" xmlns="http://www.w3.org/2000/svg" xmlns:xlink="http://www.w3.org/1999/xlink">
    <!-- Generator: Sketch 49 (51002) - http://www.bohemiancoding.com/sketch -->
    <title>planar-network-logo-rev</title>
    <desc>Created with Sketch.</desc>
    <defs></defs>
    <g id="Page-1" stroke="none" stroke-width="1" fill="none" fill-rule="evenodd">
        <g id="planar-network-logo-rev" fill="#411B8A" fill-rule="nonzero">
            <path d="M29.1,67.2 L0,50.4 L0,16.8 L29.1,0 L58.19,16.8 L58.19,50.4 L29.1,67.2 Z M2,49.24 L29.1,64.89 L56.19,49.24 L56.19,18 L29.1,2.31 L2,18 L2,49.24 Z" id="Shape"></path>
            <path d="M43.09,16 C42.8138576,16 42.59,15.7761424 42.59,15.5 L42.59,9.81 L37.64,7 C37.4024555,6.8571362 37.322515,6.55069757 37.46,6.31 C37.5248674,6.19441891 37.6337898,6.11004547 37.7619166,6.07612956 C37.8900434,6.04221364 38.0264446,6.06164848 38.14,6.13 L43.59,9.27 L43.59,15.56 C43.5594883,15.8124825 43.3443128,16.0018369 43.09,16 Z" id="Shape"></path>
            <path d="M23.89,4.94 C23.6586501,4.94593277 23.4534612,4.79232694 23.3939795,4.56867568 C23.3344977,4.34502442 23.4362691,4.10978019 23.64,4 L29.09,0.86 L34.53,4 C34.7373611,4.15080456 34.7970438,4.43402243 34.6681722,4.65568151 C34.5393006,4.8773406 34.2636458,4.9655948 34.03,4.86 L29.09,2 L24.14,4.87 C24.0653532,4.91738708 23.9784006,4.94173382 23.89,4.94 Z" id="Shape"></path>
            <path d="M15.09,16 C14.8138576,16 14.59,15.7761424 14.59,15.5 L14.59,9.23 L20,6.09 C20.1135554,6.02164848 20.2499566,6.00221364 20.3780834,6.03612956 C20.5062102,6.07004547 20.6151326,6.15441891 20.68,6.27 C20.817485,6.51069757 20.7375445,6.8171362 20.5,6.96 L15.59,9.81 L15.59,15.52 C15.5792594,15.788302 15.3585168,16.0002149 15.09,16 Z" id="Shape"></path>
            <path d="M20.28,29.19 C20.1917473,29.1906015 20.1051084,29.1663426 20.03,29.12 L14.59,26 L14.59,19.69 C14.59,19.4138576 14.8138576,19.19 15.09,19.19 C15.3661424,19.19 15.59,19.4138576 15.59,19.69 L15.59,25.4 L20.53,28.25 C20.7675445,28.3928638 20.847485,28.6993024 20.71,28.94 C20.6243886,29.0968896 20.4586989,29.1932208 20.28,29.19 Z" id="Shape"></path>
            <path d="M29.09,34.35 L23.64,31.2 C23.4660814,31.1213986 23.3520794,30.9506446 23.3461592,30.7598809 C23.340239,30.5691171 23.4434335,30.3916227 23.6121434,30.3023881 C23.7808533,30.2131535 23.985647,30.2277458 24.14,30.34 L29.09,33.19 L34,30.34 C34.154353,30.2277458 34.3591467,30.2131535 34.5278566,30.3023881 C34.6965665,30.3916227 34.799761,30.5691171 34.7938408,30.7598809 C34.7879206,30.9506446 34.6739186,31.1213986 34.5,31.2 L29.09,34.35 Z" id="Shape"></path>
            <path d="M37.89,29.19 C37.7124445,29.1889283 37.5487761,29.0937723 37.46,28.94 C37.322515,28.6993024 37.4024555,28.3928638 37.64,28.25 L42.64,25.4 L42.64,19.69 C42.64,19.4138576 42.8638576,19.19 43.14,19.19 C43.4161424,19.19 43.64,19.4138576 43.64,19.69 L43.64,26 L38.19,29.14 C38.0983054,29.1894554 37.9927778,29.2070433 37.89,29.19 Z" id="Shape"></path>
            <path d="M20.28,13 C20.1888343,13.0284471 20.0911657,13.0284471 20,13 L14.81,10 C14.6545895,9.9106836 14.5586339,9.74524132 14.5582789,9.56599365 C14.5579239,9.38674598 14.6532234,9.22092491 14.8082789,9.13099364 C14.9633345,9.04106237 15.1545895,9.0406836 15.31,9.13 L20.5,12.13 C20.6155811,12.1948674 20.6999545,12.3037898 20.7338704,12.4319166 C20.7677864,12.5600434 20.7483515,12.6964446 20.68,12.81 C20.5855921,12.9347285 20.4363277,13.0056291 20.28,13 Z" id="Shape"></path>
            <path d="M29.09,18.1 C29.0030514,18.1004189 28.9172875,18.0798355 28.84,18.04 L23.64,15.04 C23.4024555,14.8971362 23.322515,14.5906976 23.46,14.35 C23.5248674,14.2344189 23.6337898,14.1500455 23.7619166,14.1161296 C23.8900434,14.0822136 24.0264446,14.1016485 24.14,14.17 L29.34,17.17 C29.5328728,17.2844174 29.6259722,17.5132579 29.5677549,17.7298266 C29.5095375,17.9463953 29.3142455,18.0977112 29.09,18.1 Z" id="Shape"></path>
            <path d="M29.09,18.1 C28.9094161,18.1004429 28.7420621,18.0053554 28.65,17.85 C28.5151345,17.6097026 28.6001083,17.3055858 28.84,17.17 L34.03,14.17 C34.1435554,14.1016485 34.2799566,14.0822136 34.4080834,14.1161296 C34.5362102,14.1500455 34.6451326,14.2344189 34.71,14.35 C34.847485,14.5906976 34.7675445,14.8971362 34.53,15.04 L29.34,18.04 C29.2623235,18.0787781 29.1768152,18.0993 29.09,18.1 Z" id="Shape"></path>
            <path d="M37.89,13 C37.6657545,12.9977112 37.4704625,12.8463953 37.4122451,12.6298266 C37.3540278,12.4132579 37.4471272,12.1844174 37.64,12.07 L42.84,9.07 C42.994353,8.95774585 43.1991467,8.94315347 43.3678566,9.03238808 C43.5365665,9.12162269 43.639761,9.29911714 43.6338408,9.48988088 C43.6279206,9.68064462 43.5139186,9.85139857 43.34,9.93 L38.14,12.93 C38.0653532,12.9773871 37.9784006,13.0017338 37.89,13 Z" id="Shape"></path>
            <path d="M29.09,24.1 C28.8138576,24.1 28.59,23.8761424 28.59,23.6 L28.59,17.6 C28.59,17.3238576 28.8138576,17.1 29.09,17.1 C29.3639085,17.1053201 29.5846799,17.3260915 29.59,17.6 L29.59,23.6 C29.59,23.7326082 29.5373216,23.8597852 29.4435534,23.9535534 C29.3497852,24.0473216 29.2226082,24.1 29.09,24.1 Z" id="Shape"></path>
            <path d="M29.09,34.27 C28.8138576,34.27 28.59,34.0461424 28.59,33.77 L28.59,27.77 C28.59,27.4938576 28.8138576,27.27 29.09,27.27 C29.3661424,27.27 29.59,27.4938576 29.59,27.77 L29.59,33.77 C29.5846799,34.0439085 29.3639085,34.2646799 29.09,34.27 Z" id="Shape"></path>
            <path d="M57.09,40.27 C56.8138576,40.27 56.59,40.0461424 56.59,39.77 L56.59,34.06 L51.59,31.2 C51.3826389,31.0491954 51.3229562,30.7659776 51.4518278,30.5443185 C51.5806994,30.3226594 51.8563542,30.2344052 52.09,30.34 L57.54,33.48 L57.54,39.77 C57.5412916,40.027739 57.3464506,40.244229 57.09,40.27 Z" id="Shape"></path>
            <path d="M37.89,29.19 C37.7124445,29.1889283 37.5487761,29.0937723 37.46,28.94 C37.322515,28.6993024 37.4024555,28.3928638 37.64,28.25 L43.09,25.11 L48.53,28.25 C48.7675445,28.3928638 48.847485,28.6993024 48.71,28.94 C48.6451326,29.0555811 48.5362102,29.1399545 48.4080834,29.1738704 C48.2799566,29.2077864 48.1435554,29.1883515 48.03,29.12 L43.09,26.26 L38.09,29.12 C38.0298557,29.1589205 37.9612882,29.1829191 37.89,29.19 Z" id="Shape"></path>
            <path d="M29.09,40.27 C28.8138576,40.27 28.59,40.0461424 28.59,39.77 L28.59,33.48 L34,30.34 C34.154353,30.2277458 34.3591467,30.2131535 34.5278566,30.3023881 C34.6965665,30.3916227 34.799761,30.5691171 34.7938408,30.7598809 C34.7879206,30.9506446 34.6739186,31.1213986 34.5,31.2 L29.56,34.06 L29.56,39.77 C29.5604771,40.0348386 29.3543619,40.2541101 29.09,40.27 Z" id="Shape"></path>
            <path d="M34.28,53.44 C34.192503,53.4355179 34.1071024,53.4116057 34.03,53.37 L28.59,50.23 L28.59,43.94 C28.59,43.6638576 28.8138576,43.44 29.09,43.44 C29.3661424,43.44 29.59,43.6638576 29.59,43.94 L29.59,49.65 L34.53,52.5 C34.7675445,52.6428638 34.847485,52.9493024 34.71,53.19 C34.6243886,53.3468896 34.4586989,53.4432208 34.28,53.44 Z" id="Shape"></path>
            <path d="M43.09,58.59 L37.64,55.45 C37.5244189,55.3851326 37.4400455,55.2762102 37.4061296,55.1480834 C37.3722136,55.0199566 37.3916485,54.8835554 37.46,54.77 C37.5955858,54.5301083 37.8997026,54.4451345 38.14,54.58 L43.14,57.44 L48,54.58 C48.2402974,54.4451345 48.5444142,54.5301083 48.68,54.77 C48.7483515,54.8835554 48.7677864,55.0199566 48.7338704,55.1480834 C48.6999545,55.2762102 48.6155811,55.3851326 48.5,55.45 L43.09,58.59 Z" id="Shape"></path>
            <path d="M51.89,53.44 C51.7124445,53.4389283 51.5487761,53.3437723 51.46,53.19 C51.322515,52.9493024 51.4024555,52.6428638 51.64,52.5 L56.64,49.65 L56.64,43.94 C56.64,43.6638576 56.8638576,43.44 57.14,43.44 C57.4161424,43.44 57.64,43.6638576 57.64,43.94 L57.64,50.23 L52.19,53.37 C52.0979636,53.4194889 51.9944345,53.4436457 51.89,53.44 Z" id="Shape"></path>
            <path d="M34.28,37.27 C34.181635,37.2766104 34.0836818,37.2521221 34,37.2 L28.81,34.2 C28.6927212,34.1368598 28.6061997,34.0286971 28.5703563,33.9004152 C28.5345128,33.7721333 28.5524363,33.6347874 28.62,33.52 C28.7628638,33.2824555 29.0693024,33.202515 29.31,33.34 L34.5,36.34 C34.6928728,36.4544174 34.7859722,36.6832579 34.7277549,36.8998266 C34.6695375,37.1163953 34.4742455,37.2677112 34.25,37.27 L34.28,37.27 Z" id="Shape"></path>
            <path d="M43.09,42.35 C43.0015994,42.3517338 42.9146468,42.3273871 42.84,42.28 L37.64,39.28 C37.4024555,39.1371362 37.322515,38.8306976 37.46,38.59 C37.5248674,38.4744189 37.6337898,38.3900455 37.7619166,38.3561296 C37.8900434,38.3222136 38.0264446,38.3416485 38.14,38.41 L43.34,41.41 C43.5328728,41.5244174 43.6259722,41.7532579 43.5677549,41.9698266 C43.5095375,42.1863953 43.3142455,42.3377112 43.09,42.34 L43.09,42.35 Z" id="Shape"></path>
            <path d="M43.09,42.35 C42.9094161,42.3504429 42.7420621,42.2553554 42.65,42.1 C42.5151345,41.8597026 42.6001083,41.5555858 42.84,41.42 L48.03,38.42 C48.184353,38.3077458 48.3891467,38.2931535 48.5578566,38.3823881 C48.7265665,38.4716227 48.829761,38.6491171 48.8238408,38.8398809 C48.8179206,39.0306446 48.7039186,39.2013986 48.53,39.28 L43.34,42.28 C43.2648916,42.3263426 43.1782527,42.3506015 43.09,42.35 Z" id="Shape"></path>
            <path d="M51.89,37.27 C51.7124445,37.2689283 51.5487761,37.1737723 51.46,37.02 C51.322515,36.7793024 51.4024555,36.4728638 51.64,36.33 L56.84,33.33 C57.0802974,33.1951345 57.3844142,33.2801083 57.52,33.52 C57.5883515,33.6335554 57.6077864,33.7699566 57.5738704,33.8980834 C57.5399545,34.0262102 57.4555811,34.1351326 57.34,34.2 L52.14,37.2 C52.0653532,37.2473871 51.9784006,37.2717338 51.89,37.27 Z" id="Shape"></path>
            <path d="M43.09,48.35 C42.8138576,48.35 42.59,48.1261424 42.59,47.85 L42.59,41.85 C42.59,41.5738576 42.8138576,41.35 43.09,41.35 C43.3639085,41.3553201 43.5846799,41.5760915 43.59,41.85 L43.59,47.85 C43.59,48.1261424 43.3661424,48.35 43.09,48.35 Z" id="Shape"></path>
            <path d="M43.09,58.52 C42.8138576,58.52 42.59,58.2961424 42.59,58.02 L42.59,52 C42.59,51.7238576 42.8138576,51.5 43.09,51.5 C43.3661424,51.5 43.59,51.7238576 43.59,52 L43.59,58 C43.5926783,58.1352679 43.5414985,58.2660569 43.4477248,58.3635815 C43.3539511,58.4611062 43.2252689,58.5173737 43.09,58.52 Z" id="Shape"></path>
            <path d="M29.09,40.27 C28.8138576,40.27 28.59,40.0461424 28.59,39.77 L28.59,34.06 L23.64,31.2 C23.4660814,31.1213986 23.3520794,30.9506446 23.3461592,30.7598809 C23.340239,30.5691171 23.4434335,30.3916227 23.6121434,30.3023881 C23.7808533,30.2131535 23.985647,30.2277458 24.14,30.34 L29.59,33.48 L29.59,39.77 C29.59,40.0461424 29.3661424,40.27 29.09,40.27 Z" id="Shape"></path>
            <path d="M9.89,29.19 C9.71244447,29.1889283 9.54877615,29.0937723 9.46,28.94 C9.32251503,28.6993024 9.40245554,28.3928638 9.64,28.25 L15.09,25.11 L20.53,28.25 C20.7675445,28.3928638 20.847485,28.6993024 20.71,28.94 C20.6451326,29.0555811 20.5362102,29.1399545 20.4080834,29.1738704 C20.2799566,29.2077864 20.1435554,29.1883515 20.03,29.12 L15.09,26.26 L10.14,29.12 C10.0653532,29.1673871 9.97840061,29.1917338 9.89,29.19 Z" id="Shape"></path>
            <path d="M1.09,40.27 C0.813857625,40.27 0.59,40.0461424 0.59,39.77 L0.59,33.48 L6,30.34 C6.23364581,30.2344052 6.50930064,30.3226594 6.6381722,30.5443185 C6.76704376,30.7659776 6.70736107,31.0491954 6.5,31.2 L1.59,34.06 L1.59,39.77 C1.59,40.0461424 1.36614237,40.27 1.09,40.27 Z" id="Shape"></path>
            <path d="M6.28,53.44 C6.18231083,53.440207 6.0860989,53.416154 6,53.37 L0.59,50.23 L0.59,43.94 C0.59,43.6638576 0.813857625,43.44 1.09,43.44 C1.36614237,43.44 1.59,43.6638576 1.59,43.94 L1.59,49.65 L6.53,52.5 C6.76670885,52.6429057 6.85018746,52.9460649 6.72,53.19 C6.62793789,53.3453554 6.4605839,53.4404429 6.28,53.44 Z" id="Shape"></path>
            <path d="M15.09,58.59 L9.64,55.45 C9.52441891,55.3851326 9.44004547,55.2762102 9.40612956,55.1480834 C9.37221364,55.0199566 9.39164848,54.8835554 9.46,54.77 C9.5955858,54.5301083 9.89970263,54.4451345 10.14,54.58 L15.09,57.44 L20,54.58 C20.2402974,54.4451345 20.5444142,54.5301083 20.68,54.77 C20.7483515,54.8835554 20.7677864,55.0199566 20.7338704,55.1480834 C20.6999545,55.2762102 20.6155811,55.3851326 20.5,55.45 L15.09,58.59 Z" id="Shape"></path>
            <path d="M23.89,53.44 C23.7124445,53.4389283 23.5487761,53.3437723 23.46,53.19 C23.322515,52.9493024 23.4024555,52.6428638 23.64,52.5 L28.59,49.65 L28.59,43.94 C28.59,43.6638576 28.8138576,43.44 29.09,43.44 C29.3661424,43.44 29.59,43.6638576 29.59,43.94 L29.59,50.23 L24.14,53.37 C24.0628976,53.4116057 23.977497,53.4355179 23.89,53.44 Z" id="Shape"></path>
            <path d="M6.28,37.27 C6.18163504,37.2766104 6.08368182,37.2521221 6,37.2 L0.81,34.2 C0.692721212,34.1368598 0.606199735,34.0286971 0.570356264,33.9004152 C0.534512793,33.7721333 0.552436271,33.6347874 0.62,33.52 C0.762863805,33.2824555 1.06930243,33.202515 1.31,33.34 L6.5,36.34 C6.7353562,36.4791028 6.81916387,36.779046 6.69,37.02 C6.60357056,37.1664868 6.44980376,37.2602471 6.28,37.27 Z" id="Shape"></path>
            <path d="M15.09,42.35 C15.0015994,42.3517338 14.9146468,42.3273871 14.84,42.28 L9.64,39.28 C9.40245554,39.1371362 9.32251503,38.8306976 9.46,38.59 C9.52486739,38.4744189 9.63378985,38.3900455 9.76191665,38.3561296 C9.89004345,38.3222136 10.0264446,38.3416485 10.14,38.41 L15.34,41.41 C15.5328728,41.5244174 15.6259722,41.7532579 15.5677549,41.9698266 C15.5095375,42.1863953 15.3142455,42.3377112 15.09,42.34 L15.09,42.35 Z" id="Shape"></path>
            <path d="M15.09,42.35 C14.9094161,42.3504429 14.7420621,42.2553554 14.65,42.1 C14.5151345,41.8597026 14.6001083,41.5555858 14.84,41.42 L20.03,38.42 C20.2636458,38.3144052 20.5393006,38.4026594 20.6681722,38.6243185 C20.7970438,38.8459776 20.7373611,39.1291954 20.53,39.28 L15.34,42.28 C15.2648916,42.3263426 15.1782527,42.3506015 15.09,42.35 Z" id="Shape"></path>
            <path d="M23.89,37.27 C23.7124445,37.2689283 23.5487761,37.1737723 23.46,37.02 C23.322515,36.7793024 23.4024555,36.4728638 23.64,36.33 L28.84,33.33 C29.0802974,33.1951345 29.3844142,33.2801083 29.52,33.52 C29.5883515,33.6335554 29.6077864,33.7699566 29.5738704,33.8980834 C29.5399545,34.0262102 29.4555811,34.1351326 29.34,34.2 L24.14,37.2 C24.0653532,37.2473871 23.9784006,37.2717338 23.89,37.27 Z" id="Shape"></path>
            <path d="M15.09,48.35 C14.8138576,48.35 14.59,48.1261424 14.59,47.85 L14.59,41.85 C14.59,41.5738576 14.8138576,41.35 15.09,41.35 C15.3639085,41.3553201 15.5846799,41.5760915 15.59,41.85 L15.59,47.85 C15.59,48.1261424 15.3661424,48.35 15.09,48.35 Z" id="Shape"></path>
            <path d="M15.09,58.52 C14.8138576,58.52 14.59,58.2961424 14.59,58.02 L14.59,52 C14.59,51.7238576 14.8138576,51.5 15.09,51.5 C15.3661424,51.5 15.59,51.7238576 15.59,52 L15.59,58 C15.5926783,58.1352679 15.5414985,58.2660569 15.4477248,58.3635815 C15.3539511,58.4611062 15.2252689,58.5173737 15.09,58.52 Z" id="Shape"></path>
        </g>
    </g>
</svg>