<?xml version="1.0" encoding="UTF-8"?>
<svg width="328px" height="68px" viewBox="0 0 328 68" version="1.1" xmlns="http://www.w3.org/2000/svg" xmlns:xlink="http://www.w3.org/1999/xlink">
    <!-- Generator: Sketch 49 (51002) - http://www.bohemiancoding.com/sketch -->
    <title>planar-network-logo</title>
    <desc>Created with Sketch.</desc>
    <defs></defs>
    <g id="Page-1" stroke="none" stroke-width="1" fill="none" fill-rule="evenodd">
        <g id="planar-network-logo" fill="#411B8A" fill-rule="nonzero">
            <path d="M29.1,67.2 L0,50.4 L0,16.8 L29.1,0 L58.19,16.8 L58.19,50.4 L29.1,67.2 Z M2,49.24 L29.1,64.89 L56.19,49.24 L56.19,18 L29.1,2.31 L2,18 L2,49.24 Z" id="Shape"></path>
            <path d="M77.17,50.63 L77.17,21.63 L81.38,21.63 L81.38,24.45 C81.6106494,24.1348825 81.8682883,23.8404381 82.15,23.57 C82.5598673,23.1857425 82.9941028,22.8283333 83.45,22.5 C84.0878757,22.0493913 84.7981122,21.7111834 85.55,21.5 C86.4252242,21.234771 87.3354953,21.1032874 88.25,21.11 C91.0771248,21.0260594 93.8018909,22.1714095 95.72,24.25 C97.6930119,26.4370291 98.7367645,29.3064522 98.63,32.25 C98.7554237,35.2096653 97.7630553,38.1082376 95.85,40.37 C94.0018104,42.4579256 91.316626,43.609767 88.53,43.51 C87.7816527,43.5126468 87.0358968,43.4219467 86.31,43.24 C85.1545801,42.9721365 84.0722991,42.4531878 83.14,41.72 C82.780267,41.4618171 82.4454752,41.1705482 82.14,40.85 C81.9385855,40.6339992 81.7577993,40.3996468 81.6,40.15 L81.6,50.63 L77.17,50.63 Z M81.46,32.27 C81.3537133,34.2135602 82.0021603,36.1230756 83.27,37.6 C84.4329577,38.8838024 86.0983811,39.59599 87.83,39.55 C89.576863,39.6059416 91.2558124,38.8711716 92.4,37.55 C93.6220121,36.0802581 94.2561582,34.2098834 94.18,32.3 C94.2711111,30.3918789 93.6227892,28.5221327 92.37,27.08 C91.2068417,25.7789909 89.5348763,25.048875 87.79,25.08 C86.0198772,25.0146188 84.319958,25.775887 83.19,27.14 C82.0153932,28.5864319 81.4012261,30.4076327 81.46,32.27 Z" id="Shape"></path>
            <polygon id="Shape" points="101.72 43 101.72 13.42 106.17 13.42 106.17 43"></polygon>
            <path d="M109.1,36.4 C109.043957,34.4457747 109.892637,32.5749878 111.4,31.33 C113.08352,29.9436843 115.221394,29.2310596 117.4,29.33 C118.438334,29.3143414 119.472162,29.4697534 120.46,29.79 C121.214145,30.0132058 121.915016,30.3874573 122.52,30.89 L122.52,28.89 C122.573617,27.7850253 122.111938,26.7176236 121.27,26 C120.318701,25.272492 119.134713,24.9169398 117.94,25 C115.83056,25.0375985 113.76553,25.6123651 111.94,26.67 L110.24,23.56 C112.647828,21.9635099 115.470995,21.1082155 118.36,21.1 C119.717678,21.0722324 121.07022,21.2751137 122.36,21.7 C123.381641,22.0312355 124.298728,22.6242393 125.02,23.42 C125.683772,24.1669827 126.181407,25.0463658 126.48,26 C126.7944,27.0507214 126.946156,28.1433681 126.93,29.24 L126.93,43 L123,43 L122.62,41.4 C121.196292,42.8835618 119.192313,43.6661377 117.14,43.54 C115.045699,43.6026855 113.001883,42.8905546 111.4,41.54 C109.886417,40.2694701 109.038788,38.3752045 109.1,36.4 Z M114.81,33.64 C114.011425,34.2815509 113.546879,35.2506417 113.546879,36.275 C113.546879,37.2993583 114.011425,38.2684491 114.81,38.91 C116.768785,40.2757006 119.371215,40.2757006 121.33,38.91 C122.124201,38.2507528 122.583697,37.2721637 122.583697,36.24 C122.583697,35.2078363 122.124201,34.2292472 121.33,33.57 C120.379922,32.8703145 119.218745,32.517373 118.04,32.57 C116.870214,32.5302774 115.724716,32.9097457 114.81,33.64 Z" id="Shape"></path>
            <path d="M130.92,43 L130.92,21.64 L135.29,21.64 L135.29,24.39 C135.858768,23.4129714 136.681117,22.6078987 137.67,22.06 C138.764523,21.3980454 140.020899,21.0519361 141.3,21.06 C142.506236,21.0309044 143.702212,21.2879193 144.79,21.81 C145.730652,22.2618326 146.537195,22.9511863 147.13,23.81 C147.703118,24.6834102 148.125648,25.6467802 148.38,26.66 C148.66066,27.7712934 148.798438,28.9138448 148.79,30.06 L148.79,43 L144.33,43 L144.33,29.74 C144.399489,28.4889674 143.967644,27.2618069 143.13,26.33 C142.314816,25.482839 141.174498,25.0274405 140,25.08 C138.721833,25.0244096 137.484512,25.5369094 136.62,26.48 C135.738426,27.466715 135.275736,28.7579433 135.33,30.08 L135.33,43 L130.92,43 Z" id="Shape"></path>
            <path d="M151.41,36.4 C151.353957,34.4457747 152.202637,32.5749878 153.71,31.33 C155.39352,29.9436843 157.531394,29.2310596 159.71,29.33 C160.748334,29.3143414 161.782162,29.4697534 162.77,29.79 C163.524145,30.0132058 164.225016,30.3874573 164.83,30.89 L164.83,28.89 C164.883617,27.7850253 164.421938,26.7176236 163.58,26 C162.628701,25.272492 161.444713,24.9169398 160.25,25 C158.14011,25.0345025 156.074316,25.6094819 154.25,26.67 L152.54,23.56 C154.947828,21.9635099 157.770995,21.1082155 160.66,21.1 C162.017678,21.0722324 163.37022,21.2751137 164.66,21.7 C165.681641,22.0312355 166.598728,22.6242393 167.32,23.42 C167.98736,24.1660647 168.488441,25.0455138 168.79,26 C169.1044,27.0507214 169.256156,28.1433681 169.24,29.24 L169.24,43 L165.33,43 L164.95,41.4 C163.526292,42.8835618 161.522313,43.6661377 159.47,43.54 C157.375699,43.6026855 155.331883,42.8905546 153.73,41.54 C152.20896,40.2734023 151.353696,38.3785505 151.41,36.4 Z M157.12,33.64 C156.324808,34.2836404 155.862809,35.2519638 155.862809,36.275 C155.862809,37.2980362 156.324808,38.2663596 157.12,38.91 C159.078785,40.2757006 161.681215,40.2757006 163.64,38.91 C164.434201,38.2507528 164.893697,37.2721637 164.893697,36.24 C164.893697,35.2078363 164.434201,34.2292472 163.64,33.57 C162.690661,32.8688427 161.52895,32.515739 160.35,32.57 C159.180214,32.5302774 158.034716,32.9097457 157.12,33.64 Z" id="Shape"></path>
            <path d="M173.23,43 L173.23,21.64 L177.6,21.64 L177.6,25 C178.050485,23.8550087 178.84767,22.8795056 179.88,22.21 C181.00661,21.4590946 182.336373,21.0716835 183.69,21.1 L183.69,25.62 C182.867858,25.6015418 182.049788,25.7407155 181.28,26.03 C180.628845,26.2674568 180.040545,26.650536 179.56,27.15 C179.082493,27.6634454 178.708949,28.2645129 178.46,28.92 C178.174746,29.6411819 177.973422,30.3927916 177.86,31.16 C177.734425,32.0275883 177.674256,32.9033898 177.68,33.78 L177.68,43 L173.23,43 Z" id="Shape"></path>
            <path d="M183.11,43 C182.458981,42.3480236 182.458981,41.2919764 183.11,40.64 C183.419238,40.3201875 183.845132,40.1397241 184.29,40.14 C184.735577,40.1361934 185.162806,40.3172225 185.47,40.64 C185.7902,40.9490599 185.971053,41.3749763 185.971053,41.82 C185.971053,42.2650237 185.7902,42.6909401 185.47,43 C185.162806,43.3227775 184.735577,43.5038066 184.29,43.5 C183.845132,43.5002759 183.419238,43.3198125 183.11,43 Z" id="Shape"></path>
            <path d="M190.49,43 L190.49,21.76 L192.49,21.76 L192.49,25.12 C193.081528,23.960012 193.994571,22.9948942 195.12,22.34 C196.322818,21.6009976 197.708317,21.2130579 199.12,21.22 C201.172202,21.1480442 203.161594,21.9343793 204.61,23.39 C206.080074,24.960754 206.848862,27.061388 206.74,29.21 L206.74,43 L204.64,43 L204.64,29.37 C204.724293,27.6919708 204.133746,26.0499628 203,24.81 C201.917632,23.6794304 200.404173,23.0645876 198.84,23.12 C197.120786,23.0640476 195.460242,23.748658 194.28,25 C193.04972,26.366837 192.406726,28.1629106 192.49,30 L192.49,43 L190.49,43 Z" id="Shape"></path>
            <path d="M210.29,32.45 C210.272632,30.8510089 210.557634,29.2631415 211.13,27.77 C212.094155,25.1668545 214.092085,23.0784384 216.65,22 C217.869917,21.4780679 219.18312,21.2093037 220.51,21.21 C223.237101,21.1036363 225.873278,22.2005197 227.72,24.21 C229.584609,26.3079055 230.566324,29.0452418 230.46,31.85 L230.46,32.7 L212.39,32.7 C212.255509,35.1144601 213.123936,37.4773058 214.79,39.23 C216.718849,40.961805 219.28124,41.8130769 221.862939,41.5797565 C224.444638,41.3464362 226.81289,40.0495588 228.4,38 L229.73,38.93 C229.223027,39.7490834 228.603659,40.4929987 227.89,41.14 C227.035154,41.8687009 226.056246,42.4377549 225,42.82 C223.723911,43.3087449 222.36634,43.5497137 221,43.53 C218.100121,43.6294045 215.290565,42.5128326 213.25,40.45 C211.219546,38.2949141 210.151271,35.4076838 210.29,32.45 Z M212.51,30.93 L228.36,30.93 C228.425702,28.8251616 227.612818,26.7878591 226.116179,25.3063955 C224.61954,23.8249318 222.57406,23.0328511 220.47,23.12 C219.504497,23.1177202 218.54627,23.2870183 217.64,23.62 C216.742264,23.9509797 215.91212,24.4422892 215.19,25.07 C214.418126,25.7538376 213.798133,26.5918495 213.37,27.53 C212.873924,28.5998252 212.582246,29.7529708 212.51,30.93 Z" id="Shape"></path>
            <path d="M231.33,23.6 L231.33,21.76 L234,21.76 L234,17.35 L236,17.35 L236,21.76 L241,21.76 L241,23.6 L236,23.6 L236,35.54 C236,37.82 236.3,39.35 236.91,40.15 C237.52,40.95 238.65,41.35 240.28,41.35 L241.28,41.35 L241.28,43.19 C240.63,43.24 240.04,43.27 239.52,43.27 C238.015136,43.3455624 236.552902,42.7570135 235.52,41.66 C234.425048,40.3095263 233.881982,38.5945811 234,36.86 L234,23.6 L231.33,23.6 Z" id="Shape"></path>
            <path d="M242.53,21.76 L244.74,21.76 L251.21,40.45 C251.21,40.3433333 253.386667,34.1133333 257.74,21.76 L259.88,21.76 L266.41,40.45 L272.87,21.76 L275.09,21.76 L267.52,43 L265.35,43 L258.8,24.5 L252.27,43 L250.09,43 L242.53,21.76 Z" id="Shape"></path>
            <path d="M275.42,32.37 C275.394728,30.3806742 275.880201,28.4181241 276.83,26.67 C277.745904,25.0029932 279.101835,23.6193905 280.75,22.67 C282.448005,21.6991623 284.374165,21.1986368 286.33,21.22 C288.285764,21.1946415 290.211449,21.7028566 291.9,22.69 C293.537754,23.6429044 294.883123,25.0263173 295.79,26.69 C296.729552,28.4268246 297.208121,30.3755313 297.18,32.35 C297.27491,35.3306349 296.147813,38.2206272 294.06,40.35 C289.74701,44.5979545 282.82299,44.5979545 278.51,40.35 C276.445146,38.2160928 275.330708,35.3380314 275.42,32.37 Z M277.51,32.37 C277.426496,34.822995 278.322381,37.2084223 280,39 C281.676856,40.6786961 283.952266,41.6219327 286.325,41.6219327 C288.697734,41.6219327 290.973144,40.6786961 292.65,39 C294.309244,37.2110868 295.193569,34.8385073 295.11,32.4 C295.186676,29.9715828 294.302755,27.6108675 292.65,25.83 C290.981465,24.1395181 288.705234,23.1879484 286.33,23.1879484 C283.954766,23.1879484 281.678535,24.1395181 280.01,25.83 C278.351013,27.5976429 277.453149,29.9464559 277.51,32.37 Z" id="Shape"></path>
            <path d="M300.85,43 L300.85,21.76 L302.85,21.76 L302.85,25.58 C303.283893,24.352627 304.105202,23.2996673 305.19,22.58 C306.415583,21.7012349 307.892192,21.2417674 309.4,21.27 L309.4,23.27 C308.314738,23.239917 307.239058,23.4804843 306.27,23.97 C305.432979,24.4140959 304.739377,25.0868893 304.27,25.91 C303.783829,26.7473732 303.429668,27.654698 303.22,28.6 C302.991155,29.6578102 302.880477,30.7377607 302.89,31.82 L302.89,43 L300.85,43 Z" id="Shape"></path>
            <polygon id="Shape" points="312.33 43 312.33 13.42 314.33 13.42 314.33 31 324.09 21.79 326.85 21.79 316.59 31.32 327.37 43 324.63 43 314.33 31.6 314.33 43"></polygon>
            <path d="M43.09,16 C42.8138576,16 42.59,15.7761424 42.59,15.5 L42.59,9.81 L37.64,7 C37.4024555,6.8571362 37.322515,6.55069757 37.46,6.31 C37.5248674,6.19441891 37.6337898,6.11004547 37.7619166,6.07612956 C37.8900434,6.04221364 38.0264446,6.06164848 38.14,6.13 L43.59,9.27 L43.59,15.56 C43.5594883,15.8124825 43.3443128,16.0018369 43.09,16 Z" id="Shape"></path>
            <path d="M23.89,4.94 C23.6586501,4.94593277 23.4534612,4.79232694 23.3939795,4.56867568 C23.3344977,4.34502442 23.4362691,4.10978019 23.64,4 L29.09,0.86 L34.53,4 C34.7373611,4.15080456 34.7970438,4.43402243 34.6681722,4.65568151 C34.5393006,4.8773406 34.2636458,4.9655948 34.03,4.86 L29.09,2 L24.14,4.87 C24.0653532,4.91738708 23.9784006,4.94173382 23.89,4.94 Z" id="Shape"></path>
            <path d="M15.09,16 C14.8138576,16 14.59,15.7761424 14.59,15.5 L14.59,9.23 L20,6.09 C20.1135554,6.02164848 20.2499566,6.00221364 20.3780834,6.03612956 C20.5062102,6.07004547 20.6151326,6.15441891 20.68,6.27 C20.817485,6.51069757 20.7375445,6.8171362 20.5,6.96 L15.59,9.81 L15.59,15.52 C15.5792594,15.788302 15.3585168,16.0002149 15.09,16 Z" id="Shape"></path>
            <path d="M20.28,29.19 C20.1917473,29.1906015 20.1051084,29.1663426 20.03,29.12 L14.59,26 L14.59,19.69 C14.59,19.4138576 14.8138576,19.19 15.09,19.19 C15.3661424,19.19 15.59,19.4138576 15.59,19.69 L15.59,25.4 L20.53,28.25 C20.7675445,28.3928638 20.847485,28.6993024 20.71,28.94 C20.6243886,29.0968896 20.4586989,29.1932208 20.28,29.19 Z" id="Shape"></path>
            <path d="M29.09,34.35 L23.64,31.2 C23.4660814,31.1213986 23.3520794,30.9506446 23.3461592,30.7598809 C23.340239,30.5691171 23.4434335,30.3916227 23.6121434,30.3023881 C23.7808533,30.2131535 23.985647,30.2277458 24.14,30.34 L29.09,33.19 L34,30.34 C34.154353,30.2277458 34.3591467,30.2131535 34.5278566,30.3023881 C34.6965665,30.3916227 34.799761,30.5691171 34.7938408,30.7598809 C34.7879206,30.9506446 34.6739186,31.1213986 34.5,31.2 L29.09,34.35 Z" id="Shape"></path>
            <path d="M37.89,29.19 C37.7124445,29.1889283 37.5487761,29.0937723 37.46,28.94 C37.322515,28.6993024 37.4024555,28.3928638 37.64,28.25 L42.64,25.4 L42.64,19.69 C42.64,19.4138576 42.8638576,19.19 43.14,19.19 C43.4161424,19.19 43.64,19.4138576 43.64,19.69 L43.64,26 L38.19,29.14 C38.0983054,29.1894554 37.9927778,29.2070433 37.89,29.19 Z" id="Shape"></path>
            <path d="M20.28,13 C20.1888343,13.0284471 20.0911657,13.0284471 20,13 L14.81,10 C14.6545895,9.9106836 14.5586339,9.74524132 14.5582789,9.56599365 C14.5579239,9.38674598 14.6532234,9.22092491 14.8082789,9.13099364 C14.9633345,9.04106237 15.1545895,9.0406836 15.31,9.13 L20.5,12.13 C20.6155811,12.1948674 20.6999545,12.3037898 20.7338704,12.4319166 C20.7677864,12.5600434 20.7483515,12.6964446 20.68,12.81 C20.5855921,12.9347285 20.4363277,13.0056291 20.28,13 Z" id="Shape"></path>
            <path d="M29.09,18.1 C29.0030514,18.1004189 28.9172875,18.0798355 28.84,18.04 L23.64,15.04 C23.4024555,14.8971362 23.322515,14.5906976 23.46,14.35 C23.5248674,14.2344189 23.6337898,14.1500455 23.7619166,14.1161296 C23.8900434,14.0822136 24.0264446,14.1016485 24.14,14.17 L29.34,17.17 C29.5328728,17.2844174 29.6259722,17.5132579 29.5677549,17.7298266 C29.5095375,17.9463953 29.3142455,18.0977112 29.09,18.1 Z" id="Shape"></path>
            <path d="M29.09,18.1 C28.9094161,18.1004429 28.7420621,18.0053554 28.65,17.85 C28.5151345,17.6097026 28.6001083,17.3055858 28.84,17.17 L34.03,14.17 C34.1435554,14.1016485 34.2799566,14.0822136 34.4080834,14.1161296 C34.5362102,14.1500455 34.6451326,14.2344189 34.71,14.35 C34.847485,14.5906976 34.7675445,14.8971362 34.53,15.04 L29.34,18.04 C29.2623235,18.0787781 29.1768152,18.0993 29.09,18.1 Z" id="Shape"></path>
            <path d="M37.89,13 C37.6657545,12.9977112 37.4704625,12.8463953 37.4122451,12.6298266 C37.3540278,12.4132579 37.4471272,12.1844174 37.64,12.07 L42.84,9.07 C42.994353,8.95774585 43.1991467,8.94315347 43.3678566,9.03238808 C43.5365665,9.12162269 43.639761,9.29911714 43.6338408,9.48988088 C43.6279206,9.68064462 43.5139186,9.85139857 43.34,9.93 L38.14,12.93 C38.0653532,12.9773871 37.9784006,13.0017338 37.89,13 Z" id="Shape"></path>
            <path d="M29.09,24.1 C28.8138576,24.1 28.59,23.8761424 28.59,23.6 L28.59,17.6 C28.59,17.3238576 28.8138576,17.1 29.09,17.1 C29.3639085,17.1053201 29.5846799,17.3260915 29.59,17.6 L29.59,23.6 C29.59,23.7326082 29.5373216,23.8597852 29.4435534,23.9535534 C29.3497852,24.0473216 29.2226082,24.1 29.09,24.1 Z" id="Shape"></path>
            <path d="M29.09,34.27 C28.8138576,34.27 28.59,34.0461424 28.59,33.77 L28.59,27.77 C28.59,27.4938576 28.8138576,27.27 29.09,27.27 C29.3661424,27.27 29.59,27.4938576 29.59,27.77 L29.59,33.77 C29.5846799,34.0439085 29.3639085,34.2646799 29.09,34.27 Z" id="Shape"></path>
            <path d="M57.09,40.27 C56.8138576,40.27 56.59,40.0461424 56.59,39.77 L56.59,34.06 L51.59,31.2 C51.3826389,31.0491954 51.3229562,30.7659776 51.4518278,30.5443185 C51.5806994,30.3226594 51.8563542,30.2344052 52.09,30.34 L57.54,33.48 L57.54,39.77 C57.5412916,40.027739 57.3464506,40.244229 57.09,40.27 Z" id="Shape"></path>
            <path d="M37.89,29.19 C37.7124445,29.1889283 37.5487761,29.0937723 37.46,28.94 C37.322515,28.6993024 37.4024555,28.3928638 37.64,28.25 L43.09,25.11 L48.53,28.25 C48.7675445,28.3928638 48.847485,28.6993024 48.71,28.94 C48.6451326,29.0555811 48.5362102,29.1399545 48.4080834,29.1738704 C48.2799566,29.2077864 48.1435554,29.1883515 48.03,29.12 L43.09,26.26 L38.09,29.12 C38.0298557,29.1589205 37.9612882,29.1829191 37.89,29.19 Z" id="Shape"></path>
            <path d="M29.09,40.27 C28.8138576,40.27 28.59,40.0461424 28.59,39.77 L28.59,33.48 L34,30.34 C34.154353,30.2277458 34.3591467,30.2131535 34.5278566,30.3023881 C34.6965665,30.3916227 34.799761,30.5691171 34.7938408,30.7598809 C34.7879206,30.9506446 34.6739186,31.1213986 34.5,31.2 L29.56,34.06 L29.56,39.77 C29.5604771,40.0348386 29.3543619,40.2541101 29.09,40.27 Z" id="Shape"></path>
            <path d="M34.28,53.44 C34.192503,53.4355179 34.1071024,53.4116057 34.03,53.37 L28.59,50.23 L28.59,43.94 C28.59,43.6638576 28.8138576,43.44 29.09,43.44 C29.3661424,43.44 29.59,43.6638576 29.59,43.94 L29.59,49.65 L34.53,52.5 C34.7675445,52.6428638 34.847485,52.9493024 34.71,53.19 C34.6243886,53.3468896 34.4586989,53.4432208 34.28,53.44 Z" id="Shape"></path>
            <path d="M43.09,58.59 L37.64,55.45 C37.5244189,55.3851326 37.4400455,55.2762102 37.4061296,55.1480834 C37.3722136,55.0199566 37.3916485,54.8835554 37.46,54.77 C37.5955858,54.5301083 37.8997026,54.4451345 38.14,54.58 L43.14,57.44 L48,54.58 C48.2402974,54.4451345 48.5444142,54.5301083 48.68,54.77 C48.7483515,54.8835554 48.7677864,55.0199566 48.7338704,55.1480834 C48.6999545,55.2762102 48.6155811,55.3851326 48.5,55.45 L43.09,58.59 Z" id="Shape"></path>
            <path d="M51.89,53.44 C51.7124445,53.4389283 51.5487761,53.3437723 51.46,53.19 C51.322515,52.9493024 51.4024555,52.6428638 51.64,52.5 L56.64,49.65 L56.64,43.94 C56.64,43.6638576 56.8638576,43.44 57.14,43.44 C57.4161424,43.44 57.64,43.6638576 57.64,43.94 L57.64,50.23 L52.19,53.37 C52.0979636,53.4194889 51.9944345,53.4436457 51.89,53.44 Z" id="Shape"></path>
            <path d="M34.28,37.27 C34.181635,37.2766104 34.0836818,37.2521221 34,37.2 L28.81,34.2 C28.6927212,34.1368598 28.6061997,34.0286971 28.5703563,33.9004152 C28.5345128,33.7721333 28.5524363,33.6347874 28.62,33.52 C28.7628638,33.2824555 29.0693024,33.202515 29.31,33.34 L34.5,36.34 C34.6928728,36.4544174 34.7859722,36.6832579 34.7277549,36.8998266 C34.6695375,37.1163953 34.4742455,37.2677112 34.25,37.27 L34.28,37.27 Z" id="Shape"></path>
            <path d="M43.09,42.35 C43.0015994,42.3517338 42.9146468,42.3273871 42.84,42.28 L37.64,39.28 C37.4024555,39.1371362 37.322515,38.8306976 37.46,38.59 C37.5248674,38.4744189 37.6337898,38.3900455 37.7619166,38.3561296 C37.8900434,38.3222136 38.0264446,38.3416485 38.14,38.41 L43.34,41.41 C43.5328728,41.5244174 43.6259722,41.7532579 43.5677549,41.9698266 C43.5095375,42.1863953 43.3142455,42.3377112 43.09,42.34 L43.09,42.35 Z" id="Shape"></path>
            <path d="M43.09,42.35 C42.9094161,42.3504429 42.7420621,42.2553554 42.65,42.1 C42.5151345,41.8597026 42.6001083,41.5555858 42.84,41.42 L48.03,38.42 C48.184353,38.3077458 48.3891467,38.2931535 48.5578566,38.3823881 C48.7265665,38.4716227 48.829761,38.6491171 48.8238408,38.8398809 C48.8179206,39.0306446 48.7039186,39.2013986 48.53,39.28 L43.34,42.28 C43.2648916,42.3263426 43.1782527,42.3506015 43.09,42.35 Z" id="Shape"></path>
            <path d="M51.89,37.27 C51.7124445,37.2689283 51.5487761,37.1737723 51.46,37.02 C51.322515,36.7793024 51.4024555,36.4728638 51.64,36.33 L56.84,33.33 C57.0802974,33.1951345 57.3844142,33.2801083 57.52,33.52 C57.5883515,33.6335554 57.6077864,33.7699566 57.5738704,33.8980834 C57.5399545,34.0262102 57.4555811,34.1351326 57.34,34.2 L52.14,37.2 C52.0653532,37.2473871 51.9784006,37.2717338 51.89,37.27 Z" id="Shape"></path>
            <path d="M43.09,48.35 C42.8138576,48.35 42.59,48.1261424 42.59,47.85 L42.59,41.85 C42.59,41.5738576 42.8138576,41.35 43.09,41.35 C43.3639085,41.3553201 43.5846799,41.5760915 43.59,41.85 L43.59,47.85 C43.59,48.1261424 43.3661424,48.35 43.09,48.35 Z" id="Shape"></path>
            <path d="M43.09,58.52 C42.8138576,58.52 42.59,58.2961424 42.59,58.02 L42.59,52 C42.59,51.7238576 42.8138576,51.5 43.09,51.5 C43.3661424,51.5 43.59,51.7238576 43.59,52 L43.59,58 C43.5926783,58.1352679 43.5414985,58.2660569 43.4477248,58.3635815 C43.3539511,58.4611062 43.2252689,58.5173737 43.09,58.52 Z" id="Shape"></path>
            <path d="M29.09,40.27 C28.8138576,40.27 28.59,40.0461424 28.59,39.77 L28.59,34.06 L23.64,31.2 C23.4660814,31.1213986 23.3520794,30.9506446 23.3461592,30.7598809 C23.340239,30.5691171 23.4434335,30.3916227 23.6121434,30.3023881 C23.7808533,30.2131535 23.985647,30.2277458 24.14,30.34 L29.59,33.48 L29.59,39.77 C29.59,40.0461424 29.3661424,40.27 29.09,40.27 Z" id="Shape"></path>
            <path d="M9.89,29.19 C9.71244447,29.1889283 9.54877615,29.0937723 9.46,28.94 C9.32251503,28.6993024 9.40245554,28.3928638 9.64,28.25 L15.09,25.11 L20.53,28.25 C20.7675445,28.3928638 20.847485,28.6993024 20.71,28.94 C20.6451326,29.0555811 20.5362102,29.1399545 20.4080834,29.1738704 C20.2799566,29.2077864 20.1435554,29.1883515 20.03,29.12 L15.09,26.26 L10.14,29.12 C10.0653532,29.1673871 9.97840061,29.1917338 9.89,29.19 Z" id="Shape"></path>
            <path d="M1.09,40.27 C0.813857625,40.27 0.59,40.0461424 0.59,39.77 L0.59,33.48 L6,30.34 C6.23364581,30.2344052 6.50930064,30.3226594 6.6381722,30.5443185 C6.76704376,30.7659776 6.70736107,31.0491954 6.5,31.2 L1.59,34.06 L1.59,39.77 C1.59,40.0461424 1.36614237,40.27 1.09,40.27 Z" id="Shape"></path>
            <path d="M6.28,53.44 C6.18231083,53.440207 6.0860989,53.416154 6,53.37 L0.59,50.23 L0.59,43.94 C0.59,43.6638576 0.813857625,43.44 1.09,43.44 C1.36614237,43.44 1.59,43.6638576 1.59,43.94 L1.59,49.65 L6.53,52.5 C6.76670885,52.6429057 6.85018746,52.9460649 6.72,53.19 C6.62793789,53.3453554 6.4605839,53.4404429 6.28,53.44 Z" id="Shape"></path>
            <path d="M15.09,58.59 L9.64,55.45 C9.52441891,55.3851326 9.44004547,55.2762102 9.40612956,55.1480834 C9.37221364,55.0199566 9.39164848,54.8835554 9.46,54.77 C9.5955858,54.5301083 9.89970263,54.4451345 10.14,54.58 L15.09,57.44 L20,54.58 C20.2402974,54.4451345 20.5444142,54.5301083 20.68,54.77 C20.7483515,54.8835554 20.7677864,55.0199566 20.7338704,55.1480834 C20.6999545,55.2762102 20.6155811,55.3851326 20.5,55.45 L15.09,58.59 Z" id="Shape"></path>
            <path d="M23.89,53.44 C23.7124445,53.4389283 23.5487761,53.3437723 23.46,53.19 C23.322515,52.9493024 23.4024555,52.6428638 23.64,52.5 L28.59,49.65 L28.59,43.94 C28.59,43.6638576 28.8138576,43.44 29.09,43.44 C29.3661424,43.44 29.59,43.6638576 29.59,43.94 L29.59,50.23 L24.14,53.37 C24.0628976,53.4116057 23.977497,53.4355179 23.89,53.44 Z" id="Shape"></path>
            <path d="M6.28,37.27 C6.18163504,37.2766104 6.08368182,37.2521221 6,37.2 L0.81,34.2 C0.692721212,34.1368598 0.606199735,34.0286971 0.570356264,33.9004152 C0.534512793,33.7721333 0.552436271,33.6347874 0.62,33.52 C0.762863805,33.2824555 1.06930243,33.202515 1.31,33.34 L6.5,36.34 C6.7353562,36.4791028 6.81916387,36.779046 6.69,37.02 C6.60357056,37.1664868 6.44980376,37.2602471 6.28,37.27 Z" id="Shape"></path>
            <path d="M15.09,42.35 C15.0015994,42.3517338 14.9146468,42.3273871 14.84,42.28 L9.64,39.28 C9.40245554,39.1371362 9.32251503,38.8306976 9.46,38.59 C9.52486739,38.4744189 9.63378985,38.3900455 9.76191665,38.3561296 C9.89004345,38.3222136 10.0264446,38.3416485 10.14,38.41 L15.34,41.41 C15.5328728,41.5244174 15.6259722,41.7532579 15.5677549,41.9698266 C15.5095375,42.1863953 15.3142455,42.3377112 15.09,42.34 L15.09,42.35 Z" id="Shape"></path>
            <path d="M15.09,42.35 C14.9094161,42.3504429 14.7420621,42.2553554 14.65,42.1 C14.5151345,41.8597026 14.6001083,41.5555858 14.84,41.42 L20.03,38.42 C20.2636458,38.3144052 20.5393006,38.4026594 20.6681722,38.6243185 C20.7970438,38.8459776 20.7373611,39.1291954 20.53,39.28 L15.34,42.28 C15.2648916,42.3263426 15.1782527,42.3506015 15.09,42.35 Z" id="Shape"></path>
            <path d="M23.89,37.27 C23.7124445,37.2689283 23.5487761,37.1737723 23.46,37.02 C23.322515,36.7793024 23.4024555,36.4728638 23.64,36.33 L28.84,33.33 C29.0802974,33.1951345 29.3844142,33.2801083 29.52,33.52 C29.5883515,33.6335554 29.6077864,33.7699566 29.5738704,33.8980834 C29.5399545,34.0262102 29.4555811,34.1351326 29.34,34.2 L24.14,37.2 C24.0653532,37.2473871 23.9784006,37.2717338 23.89,37.27 Z" id="Shape"></path>
            <path d="M15.09,48.35 C14.8138576,48.35 14.59,48.1261424 14.59,47.85 L14.59,41.85 C14.59,41.5738576 14.8138576,41.35 15.09,41.35 C15.3639085,41.3553201 15.5846799,41.5760915 15.59,41.85 L15.59,47.85 C15.59,48.1261424 15.3661424,48.35 15.09,48.35 Z" id="Shape"></path>
            <path d="M15.09,58.52 C14.8138576,58.52 14.59,58.2961424 14.59,58.02 L14.59,52 C14.59,51.7238576 14.8138576,51.5 15.09,51.5 C15.3661424,51.5 15.59,51.7238576 15.59,52 L15.59,58 C15.5926783,58.1352679 15.5414985,58.2660569 15.4477248,58.3635815 C15.3539511,58.4611062 15.2252689,58.5173737 15.09,58.52 Z" id="Shape"></path>
        </g>
    </g>
</svg>