<?xml version="1.0" standalone="no"?>
<!DOCTYPE svg PUBLIC "-//W3C//DTD SVG 20010904//EN"
 "http://www.w3.org/TR/2001/REC-SVG-20010904/DTD/svg10.dtd">
<svg version="1.0" xmlns="http://www.w3.org/2000/svg"
 width="274.000000pt" height="274.000000pt" viewBox="0 0 274.000000 274.000000"
 preserveAspectRatio="xMidYMid meet">
<metadata>
Created by potrace 1.11, written by Peter Selinger 2001-2013
</metadata>
<g transform="translate(0.000000,274.000000) scale(0.100000,-0.100000)"
fill="#000000" stroke="none">
<path d="M777 2398 l-587 -341 2 -684 3 -685 155 -90 c85 -50 173 -100 195
-112 22 -13 217 -126 434 -251 385 -223 395 -228 420 -213 62 36 610 352 646
373 22 12 146 84 275 159 l235 136 1 683 1 684 -361 208 c-199 115 -461 266
-582 337 -122 70 -228 130 -235 132 -8 2 -278 -149 -602 -336z m859 96 l254
-147 -78 -45 c-96 -55 -110 -68 -95 -83 9 -9 34 1 103 40 51 29 94 50 96 48 3
-2 5 -50 5 -106 0 -81 3 -103 15 -108 8 -3 18 -3 21 0 3 4 5 51 5 107 -1 55 2
100 7 100 4 0 25 -11 45 -25 20 -14 39 -25 42 -25 2 0 59 -32 127 -71 67 -40
138 -81 157 -92 80 -45 125 -71 130 -74 2 -2 4 -138 5 -302 l0 -298 -30 17
c-16 9 -56 32 -88 50 -41 23 -62 29 -69 22 -16 -16 -5 -26 91 -83 l90 -53 -27
-16 c-15 -9 -57 -33 -94 -54 -64 -36 -83 -59 -56 -68 7 -3 50 17 96 44 46 26
84 48 85 48 1 0 2 -130 2 -290 -1 -276 -2 -290 -20 -305 -11 -8 -23 -15 -26
-15 -3 0 -106 -58 -229 -130 -122 -72 -226 -130 -230 -130 -4 0 -8 37 -8 82 0
112 0 108 -22 108 -18 0 -20 -7 -19 -106 0 -58 -1 -108 -3 -110 -2 -2 -42 19
-89 46 -46 27 -92 50 -101 50 -40 0 -13 -31 67 -77 l84 -49 -251 -145 c-138
-79 -255 -143 -260 -141 -12 3 -480 272 -491 282 -4 3 29 26 73 51 52 29 80
50 80 62 0 27 -23 21 -107 -29 -42 -25 -81 -46 -87 -47 -6 -1 -10 37 -11 98
-1 107 -8 133 -30 115 -9 -7 -13 -38 -12 -97 0 -48 -4 -88 -9 -89 -5 -2 -119
61 -254 140 l-245 142 -3 293 -2 293 52 -30 c29 -16 69 -39 89 -51 32 -19 38
-20 49 -6 12 15 -1 25 -144 109 l-39 23 74 43 c115 66 119 69 113 85 -9 21
-13 20 -100 -30 -44 -25 -82 -45 -87 -45 -4 0 -6 133 -5 296 l3 296 200 115
c268 155 298 172 305 168 3 -2 4 -38 3 -82 -3 -92 2 -123 21 -123 20 0 22 14
21 123 -1 53 1 97 4 97 3 0 45 -22 93 -50 96 -55 103 -57 112 -35 5 13 -51 52
-153 105 -13 6 -19 16 -15 20 15 14 498 290 508 290 5 0 123 -66 262 -146z"/>
<path d="M1147 2163 c-18 -17 1 -33 98 -89 l105 -59 1 -50 c0 -27 0 -83 0
-123 -1 -57 2 -74 14 -78 9 -4 19 -4 22 0 3 3 6 60 6 127 l1 121 103 60 c94
55 118 78 95 92 -4 2 -56 -22 -114 -55 l-107 -60 -105 60 c-113 66 -110 64
-119 54z"/>
<path d="M787 1952 c-3 -4 -5 -61 -4 -126 l1 -119 -50 -28 c-27 -16 -70 -40
-95 -53 -58 -31 -78 -54 -59 -66 8 -5 17 -7 20 -6 3 2 49 29 103 60 l99 57
105 -61 c58 -33 109 -60 113 -60 8 0 23 31 18 35 -2 1 -50 30 -108 63 l-105
62 -1 112 c-1 62 -2 119 -3 126 -1 13 -27 17 -34 4z"/>
<path d="M1925 1948 c-3 -7 -6 -65 -7 -127 l-3 -115 -100 -58 c-55 -32 -101
-64 -103 -72 -7 -33 25 -24 125 33 l106 62 96 -55 c111 -63 126 -68 126 -43 0
12 -31 36 -100 76 l-100 57 -1 111 c-1 62 -4 119 -7 127 -8 19 -26 21 -32 4z"/>
<path d="M1356 1614 c-3 -9 -6 -58 -6 -110 0 -52 -2 -94 -5 -94 -2 0 -43 23
-90 51 -82 48 -115 56 -115 27 0 -7 43 -38 95 -68 l94 -54 -94 -55 c-52 -30
-95 -60 -95 -67 0 -26 29 -19 115 31 l90 52 3 -106 c3 -108 10 -133 35 -113
10 8 13 38 12 109 -1 54 0 101 2 105 2 3 45 -18 95 -47 73 -43 95 -52 106 -42
18 14 -2 31 -104 87 -41 23 -74 43 -74 45 0 2 26 18 58 36 112 64 132 78 126
94 -9 22 -19 19 -114 -35 -48 -27 -89 -50 -92 -50 -2 0 -4 44 -3 98 0 53 -1
103 -3 110 -6 17 -29 15 -36 -4z"/>
<path d="M575 1170 c-8 -13 2 -29 24 -38 44 -19 181 -105 182 -115 0 -7 1 -60
1 -119 -1 -77 3 -110 13 -118 23 -19 29 9 30 130 l0 115 102 60 c68 39 103 66
103 78 0 9 -5 17 -11 17 -6 0 -56 -26 -112 -57 -56 -32 -105 -57 -110 -55 -5
2 -52 27 -104 57 -99 58 -108 61 -118 45z"/>
<path d="M1715 1170 c-10 -17 2 -27 105 -86 l100 -56 1 -57 c0 -31 0 -83 -1
-117 -1 -44 3 -64 14 -73 24 -20 31 12 30 136 l-2 109 104 59 c69 40 104 66
104 78 0 9 -5 17 -11 17 -7 0 -58 -27 -115 -59 l-103 -59 -101 59 c-107 62
-115 65 -125 49z"/>
<path d="M1363 972 c-8 -5 -13 -48 -15 -131 l-3 -124 -100 -57 c-101 -59 -119
-75 -91 -86 10 -4 55 16 112 50 53 31 102 56 108 56 6 0 53 -25 105 -55 93
-55 115 -63 125 -46 8 12 -18 32 -104 81 -113 64 -106 53 -105 181 1 110 -8
146 -32 131z"/>
</g>
</svg>
