<svg xmlns="http://www.w3.org/2000/svg" viewBox="0 0 327.37 67.2"><title>Asset 1</title><path d="M29.1,67.2,0,50.4V16.8L29.1,0,58.19,16.8V50.4ZM2,49.24,29.1,64.89,56.19,49.24V18L29.1,2.31,2,18Z" fill="#fff"/><path d="M77.17,50.63v-29h4.21v2.82a6.73,6.73,0,0,1,.77-.88,13.06,13.06,0,0,1,1.3-1.07,6.85,6.85,0,0,1,2.1-1,9.08,9.08,0,0,1,2.7-.39,9.77,9.77,0,0,1,7.47,3.14,11.33,11.33,0,0,1,2.91,8,11.8,11.8,0,0,1-2.78,8.12,9.33,9.33,0,0,1-7.32,3.14,9,9,0,0,1-2.22-.27,8.08,8.08,0,0,1-3.17-1.52,7.1,7.1,0,0,1-1-.87,4.74,4.74,0,0,1-.54-.7V50.63Zm4.29-18.36a7.55,7.55,0,0,0,1.81,5.33,5.94,5.94,0,0,0,4.56,1.95,5.8,5.8,0,0,0,4.57-2,7.73,7.73,0,0,0,1.78-5.25,7.42,7.42,0,0,0-1.81-5.22,6,6,0,0,0-4.58-2,5.7,5.7,0,0,0-4.6,2.06A7.75,7.75,0,0,0,81.46,32.27Z" fill="#fff"/><path d="M101.72,43V13.42h4.45V43Z" fill="#fff"/><path d="M109.1,36.4a6.34,6.34,0,0,1,2.3-5.07,8.81,8.81,0,0,1,6-2,9.46,9.46,0,0,1,3.06.46,5.8,5.8,0,0,1,2.06,1.1v-2A3.57,3.57,0,0,0,121.27,26a4.92,4.92,0,0,0-3.33-1,12.41,12.41,0,0,0-6,1.67l-1.7-3.11a14.77,14.77,0,0,1,8.12-2.46,12,12,0,0,1,4,.6,6.15,6.15,0,0,1,2.66,1.72A7.06,7.06,0,0,1,126.48,26a10.75,10.75,0,0,1,.45,3.24V43H123l-.38-1.6a7,7,0,0,1-5.48,2.14,8.51,8.51,0,0,1-5.74-2A6.45,6.45,0,0,1,109.1,36.4Zm5.71-2.76a3.38,3.38,0,0,0,0,5.27,5.7,5.7,0,0,0,6.52,0,3.47,3.47,0,0,0,0-5.34,5.16,5.16,0,0,0-3.29-1A4.91,4.91,0,0,0,114.81,33.64Z" fill="#fff"/><path d="M130.92,43V21.64h4.37v2.75a6.27,6.27,0,0,1,2.38-2.33,6.93,6.93,0,0,1,3.63-1,7.64,7.64,0,0,1,3.49.75,6,6,0,0,1,2.34,2,9.34,9.34,0,0,1,1.25,2.85,13.48,13.48,0,0,1,.41,3.4V43h-4.46V29.74a4.71,4.71,0,0,0-1.2-3.41A4.09,4.09,0,0,0,140,25.08a4.33,4.33,0,0,0-3.38,1.4,5.09,5.09,0,0,0-1.29,3.6V43Z" fill="#fff"/><path d="M151.41,36.4a6.34,6.34,0,0,1,2.3-5.07,8.81,8.81,0,0,1,6-2,9.46,9.46,0,0,1,3.06.46,5.8,5.8,0,0,1,2.06,1.1v-2A3.57,3.57,0,0,0,163.58,26a4.92,4.92,0,0,0-3.33-1,12.34,12.34,0,0,0-6,1.67l-1.71-3.11a14.77,14.77,0,0,1,8.12-2.46,12,12,0,0,1,4,.6,6.15,6.15,0,0,1,2.66,1.72A7.06,7.06,0,0,1,168.79,26a10.75,10.75,0,0,1,.45,3.24V43h-3.91l-.38-1.6a7,7,0,0,1-5.48,2.14,8.51,8.51,0,0,1-5.74-2A6.45,6.45,0,0,1,151.41,36.4Zm5.71-2.76a3.39,3.39,0,0,0,0,5.27,5.7,5.7,0,0,0,6.52,0,3.47,3.47,0,0,0,0-5.34,5.14,5.14,0,0,0-3.29-1A4.91,4.91,0,0,0,157.12,33.64Z" fill="#fff"/><path d="M173.23,43V21.64h4.37V25a5.9,5.9,0,0,1,2.28-2.79,6.62,6.62,0,0,1,3.81-1.11v4.52a6.44,6.44,0,0,0-2.41.41,4.55,4.55,0,0,0-1.72,1.12,5.43,5.43,0,0,0-1.1,1.77,10.11,10.11,0,0,0-.6,2.24,17.49,17.49,0,0,0-.18,2.62V43Z" fill="#fff"/><path d="M183.11,43a1.67,1.67,0,0,1,0-2.36,1.64,1.64,0,0,1,1.18-.5,1.61,1.61,0,0,1,1.18.5,1.64,1.64,0,0,1,0,2.36,1.61,1.61,0,0,1-1.18.5A1.64,1.64,0,0,1,183.11,43Z" fill="#fff"/><path d="M190.49,43V21.76h2v3.36a6.78,6.78,0,0,1,2.63-2.78,7.57,7.57,0,0,1,4-1.12,7.38,7.38,0,0,1,5.49,2.17,7.93,7.93,0,0,1,2.13,5.82V43h-2.1V29.37A6.29,6.29,0,0,0,203,24.81a5.49,5.49,0,0,0-4.16-1.69A6,6,0,0,0,194.28,25a7,7,0,0,0-1.79,5V43Z" fill="#fff"/><path d="M210.29,32.45a12.69,12.69,0,0,1,.84-4.68A10.05,10.05,0,0,1,216.65,22a9.8,9.8,0,0,1,3.86-.79,9.3,9.3,0,0,1,7.21,3,10.88,10.88,0,0,1,2.74,7.64v.85H212.39a8.77,8.77,0,0,0,2.4,6.53A9.33,9.33,0,0,0,228.4,38l1.33.93a10.3,10.3,0,0,1-1.84,2.21A9.37,9.37,0,0,1,225,42.82a10.75,10.75,0,0,1-4,.71,10.4,10.4,0,0,1-7.75-3.08A10.92,10.92,0,0,1,210.29,32.45Zm2.22-1.52h15.85a7.58,7.58,0,0,0-7.89-7.81,8.15,8.15,0,0,0-2.83.5,7.9,7.9,0,0,0-2.45,1.45,7.38,7.38,0,0,0-1.82,2.46A9.46,9.46,0,0,0,212.51,30.93Z" fill="#fff"/><path d="M231.33,23.6V21.76H234V17.35h2v4.41h5V23.6h-5V35.54c0,2.28.3,3.81.91,4.61s1.74,1.2,3.37,1.2l1,0v1.84c-.65.05-1.24.08-1.76.08a5.14,5.14,0,0,1-4-1.61A6.88,6.88,0,0,1,234,36.86V23.6Z" fill="#fff"/><path d="M242.53,21.76h2.21l6.47,18.69q0-.16,6.53-18.69h2.14l6.53,18.69,6.46-18.69h2.22L267.52,43h-2.17L258.8,24.5,252.27,43h-2.18Z" fill="#fff"/><path d="M275.42,32.37a11.63,11.63,0,0,1,1.41-5.7,10.39,10.39,0,0,1,3.92-4,11,11,0,0,1,5.58-1.45,10.76,10.76,0,0,1,5.57,1.47,10.37,10.37,0,0,1,3.89,4,11.55,11.55,0,0,1,1.39,5.66,10.93,10.93,0,0,1-3.12,8,11.08,11.08,0,0,1-15.55,0A11,11,0,0,1,275.42,32.37Zm2.09,0A9.24,9.24,0,0,0,280,39a8.94,8.94,0,0,0,12.65,0,9.24,9.24,0,0,0,2.46-6.6,9.23,9.23,0,0,0-2.46-6.57,8.88,8.88,0,0,0-12.64,0A9.24,9.24,0,0,0,277.51,32.37Z" fill="#fff"/><path d="M300.85,43V21.76h2v3.82a6,6,0,0,1,2.34-3,7,7,0,0,1,4.21-1.31v2a6.54,6.54,0,0,0-3.13.7,5,5,0,0,0-2,1.94,9.42,9.42,0,0,0-1.05,2.69,14.62,14.62,0,0,0-.33,3.22V43Z" fill="#fff"/><path d="M312.33,43V13.42h2V31l9.76-9.21h2.76l-10.26,9.53L327.37,43h-2.74l-10.3-11.4V43Z" fill="#fff"/><path d="M43.09,16a.5.5,0,0,1-.5-.5V9.81L37.64,7a.51.51,0,0,1-.18-.69.49.49,0,0,1,.68-.18l5.45,3.14v6.29A.5.5,0,0,1,43.09,16Z" fill="#fff"/><path d="M23.89,4.94A.5.5,0,0,1,23.64,4L29.09.86,34.53,4a.5.5,0,0,1-.5.86L29.09,2,24.14,4.87A.45.45,0,0,1,23.89,4.94Z" fill="#fff"/><path d="M15.09,16a.5.5,0,0,1-.5-.5V9.23L20,6.09a.49.49,0,0,1,.68.18.51.51,0,0,1-.18.69L15.59,9.81v5.71A.5.5,0,0,1,15.09,16Z" fill="#fff"/><path d="M20.28,29.19a.47.47,0,0,1-.25-.07L14.59,26V19.69a.5.5,0,0,1,.5-.5.5.5,0,0,1,.5.5V25.4l4.94,2.85a.51.51,0,0,1,.18.69A.48.48,0,0,1,20.28,29.19Z" fill="#fff"/><path d="M29.09,34.35,23.64,31.2a.5.5,0,1,1,.5-.86l4.95,2.85L34,30.34a.5.5,0,1,1,.5.86Z" fill="#fff"/><path d="M37.89,29.19a.5.5,0,0,1-.43-.25.51.51,0,0,1,.18-.69l5-2.85V19.69a.5.5,0,0,1,.5-.5.5.5,0,0,1,.5.5V26l-5.45,3.14A.47.47,0,0,1,37.89,29.19Z" fill="#fff"/><path d="M20.28,13A.47.47,0,0,1,20,13l-5.19-3a.5.5,0,1,1,.5-.87l5.19,3a.49.49,0,0,1,.18.68A.48.48,0,0,1,20.28,13Z" fill="#fff"/><path d="M29.09,18.1a.54.54,0,0,1-.25-.06l-5.2-3a.51.51,0,0,1-.18-.69.49.49,0,0,1,.68-.18l5.2,3a.5.5,0,0,1-.25.93Z" fill="#fff"/><path d="M29.09,18.1a.51.51,0,0,1-.44-.25.5.5,0,0,1,.19-.68l5.19-3a.49.49,0,0,1,.68.18.51.51,0,0,1-.18.69l-5.19,3A.57.57,0,0,1,29.09,18.1Z" fill="#fff"/><path d="M37.89,13a.5.5,0,0,1-.25-.93l5.2-3a.5.5,0,1,1,.5.86l-5.2,3A.45.45,0,0,1,37.89,13Z" fill="#fff"/><path d="M29.09,24.1a.5.5,0,0,1-.5-.5v-6a.5.5,0,0,1,.5-.5.51.51,0,0,1,.5.5v6A.5.5,0,0,1,29.09,24.1Z" fill="#fff"/><path d="M29.09,34.27a.5.5,0,0,1-.5-.5v-6a.5.5,0,0,1,.5-.5.5.5,0,0,1,.5.5v6A.51.51,0,0,1,29.09,34.27Z" fill="#fff"/><path d="M57.09,40.27a.5.5,0,0,1-.5-.5V34.06l-5-2.86a.5.5,0,0,1,.5-.86l5.45,3.14v6.29A.5.5,0,0,1,57.09,40.27Z" fill="#fff"/><path d="M37.89,29.19a.5.5,0,0,1-.43-.25.51.51,0,0,1,.18-.69l5.45-3.14,5.44,3.14a.51.51,0,0,1,.18.69.49.49,0,0,1-.68.18l-4.94-2.86-5,2.86A.45.45,0,0,1,37.89,29.19Z" fill="#fff"/><path d="M29.09,40.27a.5.5,0,0,1-.5-.5V33.48L34,30.34a.5.5,0,1,1,.5.86l-4.94,2.86v5.71A.5.5,0,0,1,29.09,40.27Z" fill="#fff"/><path d="M34.28,53.44a.59.59,0,0,1-.25-.07l-5.44-3.14V43.94a.5.5,0,0,1,.5-.5.5.5,0,0,1,.5.5v5.71l4.94,2.85a.51.51,0,0,1,.18.69A.48.48,0,0,1,34.28,53.44Z" fill="#fff"/><path d="M43.09,58.59l-5.45-3.14a.49.49,0,0,1-.18-.68.5.5,0,0,1,.68-.19l5,2.86L48,54.58a.5.5,0,0,1,.68.19.49.49,0,0,1-.18.68Z" fill="#fff"/><path d="M51.89,53.44a.5.5,0,0,1-.43-.25.51.51,0,0,1,.18-.69l5-2.85V43.94a.5.5,0,0,1,.5-.5.5.5,0,0,1,.5.5v6.29l-5.45,3.14A.59.59,0,0,1,51.89,53.44Z" fill="#fff"/><path d="M34.28,37.27A.47.47,0,0,1,34,37.2l-5.19-3a.49.49,0,0,1-.19-.68.51.51,0,0,1,.69-.18l5.19,3a.5.5,0,0,1-.25.93Z" fill="#fff"/><path d="M43.09,42.35a.45.45,0,0,1-.25-.07l-5.2-3a.51.51,0,0,1-.18-.69.49.49,0,0,1,.68-.18l5.2,3a.5.5,0,0,1-.25.93Z" fill="#fff"/><path d="M43.09,42.35a.51.51,0,0,1-.44-.25.5.5,0,0,1,.19-.68l5.19-3a.5.5,0,1,1,.5.86l-5.19,3A.47.47,0,0,1,43.09,42.35Z" fill="#fff"/><path d="M51.89,37.27a.5.5,0,0,1-.43-.25.51.51,0,0,1,.18-.69l5.2-3a.5.5,0,0,1,.68.19.49.49,0,0,1-.18.68l-5.2,3A.45.45,0,0,1,51.89,37.27Z" fill="#fff"/><path d="M43.09,48.35a.5.5,0,0,1-.5-.5v-6a.5.5,0,0,1,.5-.5.51.51,0,0,1,.5.5v6A.5.5,0,0,1,43.09,48.35Z" fill="#fff"/><path d="M43.09,58.52a.5.5,0,0,1-.5-.5V52a.5.5,0,0,1,.5-.5.5.5,0,0,1,.5.5v6A.51.51,0,0,1,43.09,58.52Z" fill="#fff"/><path d="M29.09,40.27a.5.5,0,0,1-.5-.5V34.06L23.64,31.2a.5.5,0,1,1,.5-.86l5.45,3.14v6.29A.5.5,0,0,1,29.09,40.27Z" fill="#fff"/><path d="M9.89,29.19a.5.5,0,0,1-.43-.25.51.51,0,0,1,.18-.69l5.45-3.14,5.44,3.14a.51.51,0,0,1,.18.69.49.49,0,0,1-.68.18l-4.94-2.86-4.95,2.86A.45.45,0,0,1,9.89,29.19Z" fill="#fff"/><path d="M1.09,40.27a.5.5,0,0,1-.5-.5V33.48L6,30.34a.5.5,0,0,1,.5.86L1.59,34.06v5.71A.5.5,0,0,1,1.09,40.27Z" fill="#fff"/><path d="M6.28,53.44A.59.59,0,0,1,6,53.37L.59,50.23V43.94a.5.5,0,0,1,.5-.5.5.5,0,0,1,.5.5v5.71L6.53,52.5a.52.52,0,0,1,.19.69A.51.51,0,0,1,6.28,53.44Z" fill="#fff"/><path d="M15.09,58.59,9.64,55.45a.49.49,0,0,1-.18-.68.5.5,0,0,1,.68-.19l4.95,2.86L20,54.58a.5.5,0,0,1,.68.19.49.49,0,0,1-.18.68Z" fill="#fff"/><path d="M23.89,53.44a.5.5,0,0,1-.43-.25.51.51,0,0,1,.18-.69l4.95-2.85V43.94a.5.5,0,0,1,.5-.5.5.5,0,0,1,.5.5v6.29l-5.45,3.14A.59.59,0,0,1,23.89,53.44Z" fill="#fff"/><path d="M6.28,37.27A.47.47,0,0,1,6,37.2l-5.19-3a.49.49,0,0,1-.19-.68.51.51,0,0,1,.69-.18l5.19,3a.51.51,0,0,1,.19.68A.51.51,0,0,1,6.28,37.27Z" fill="#fff"/><path d="M15.09,42.35a.45.45,0,0,1-.25-.07l-5.2-3a.51.51,0,0,1-.18-.69.49.49,0,0,1,.68-.18l5.2,3a.5.5,0,0,1-.25.93Z" fill="#fff"/><path d="M15.09,42.35a.51.51,0,0,1-.44-.25.5.5,0,0,1,.19-.68l5.19-3a.5.5,0,0,1,.5.86l-5.19,3A.47.47,0,0,1,15.09,42.35Z" fill="#fff"/><path d="M23.89,37.27a.5.5,0,0,1-.43-.25.51.51,0,0,1,.18-.69l5.2-3a.5.5,0,0,1,.68.19.49.49,0,0,1-.18.68l-5.2,3A.45.45,0,0,1,23.89,37.27Z" fill="#fff"/><path d="M15.09,48.35a.5.5,0,0,1-.5-.5v-6a.5.5,0,0,1,.5-.5.51.51,0,0,1,.5.5v6A.5.5,0,0,1,15.09,48.35Z" fill="#fff"/><path d="M15.09,58.52a.5.5,0,0,1-.5-.5V52a.5.5,0,0,1,.5-.5.5.5,0,0,1,.5.5v6A.51.51,0,0,1,15.09,58.52Z" fill="#fff"/></svg>